<svg width="228" height="54" viewBox="0 0 228 54" fill="none" xmlns="http://www.w3.org/2000/svg">
<rect width="228" height="54" fill="#FFDD00"/>
<g clip-path="url(#clip0_2002_100)">
<path fill-rule="evenodd" clip-rule="evenodd" d="M16.7501 24C16.6378 24 16.5271 24.0253 16.4259 24.0738C16.3247 24.1224 16.2357 24.193 16.1655 24.2805C16.0952 24.3681 16.0455 24.4702 16.02 24.5795C15.9945 24.6888 15.9938 24.8024 16.0181 24.912L18.4961 36.063C18.681 36.8959 19.1445 37.6408 19.8099 38.1747C20.4753 38.7087 21.3029 38.9998 22.1561 39H30.8441C31.6972 38.9998 32.5248 38.7087 33.1903 38.1747C33.8557 37.6408 34.3191 36.8959 34.5041 36.063L34.7006 35.178C35.848 35.3926 37.0338 35.153 38.0079 34.5097C38.9819 33.8664 39.6678 32.8698 39.9209 31.7303C40.1739 30.5907 39.9743 29.3975 39.3641 28.4024C38.7539 27.4073 37.7809 26.6882 36.6506 26.397L36.9821 24.912C37.0063 24.8024 37.0057 24.6888 36.9801 24.5795C36.9546 24.4702 36.9049 24.3681 36.8347 24.2805C36.7644 24.193 36.6754 24.1224 36.5743 24.0738C36.4731 24.0253 36.3623 24 36.2501 24H16.7501ZM35.5001 33.75C35.3413 33.7501 35.1828 33.7375 35.0261 33.7125L36.3266 27.8655C37.0203 28.0664 37.6183 28.5108 38.0109 29.117C38.4035 29.7233 38.5643 30.4507 38.4639 31.166C38.3634 31.8812 38.0084 32.5363 37.464 33.0109C36.9196 33.4855 36.2223 33.748 35.5001 33.75Z" fill="black"/>
<path d="M22.6 16.2L22.5955 16.206L22.5745 16.2345C22.4654 16.3847 22.3633 16.5399 22.2685 16.6995C22.188 16.8275 22.1173 16.9614 22.057 17.1C22.018 17.19 22.006 17.238 22.0015 17.2545V17.2605C22.0188 17.3931 22.0654 17.5202 22.138 17.6325C22.2505 17.832 22.405 18.0405 22.6 18.3L22.615 18.318C22.792 18.555 23.005 18.8385 23.17 19.1325C23.338 19.4325 23.5 19.815 23.5 20.25C23.5 20.532 23.4025 20.802 23.3215 20.991C23.2348 21.1921 23.1335 21.3866 23.0185 21.573C22.9008 21.7697 22.7742 21.9609 22.639 22.146L22.612 22.1835L22.6045 22.1955L22.6015 22.1985C22.4824 22.3578 22.3048 22.4633 22.1079 22.4917C21.911 22.5201 21.7108 22.4692 21.5515 22.35C21.3922 22.2309 21.2867 22.0533 21.2583 21.8564C21.2299 21.6595 21.2809 21.4593 21.4 21.3L21.4045 21.294L21.4255 21.2655C21.5346 21.1153 21.6367 20.9602 21.7315 20.8005C21.812 20.6725 21.8827 20.5387 21.943 20.4C21.982 20.31 21.994 20.262 21.9985 20.2455C21.9825 20.111 21.9364 19.9817 21.8635 19.8675C21.7243 19.6348 21.5694 19.4118 21.4 19.2L21.385 19.182C21.1823 18.923 20.9969 18.6509 20.83 18.3675C20.6257 18.0296 20.512 17.6447 20.5 17.25C20.5 16.968 20.5975 16.698 20.6785 16.509C20.767 16.302 20.8795 16.098 20.9815 15.927C21.1007 15.7313 21.2273 15.5401 21.361 15.354L21.3985 15.3015C21.5176 15.1422 21.6952 15.0367 21.8921 15.0083C22.089 14.9799 22.2892 15.0309 22.4485 15.15C22.6078 15.2692 22.7133 15.4467 22.7417 15.6436C22.7701 15.8406 22.7191 16.0407 22.6 16.2ZM27.1 16.2L27.0955 16.206L27.0745 16.2345C26.9654 16.3847 26.8633 16.5399 26.7685 16.6995C26.688 16.8275 26.6173 16.9614 26.557 17.1C26.518 17.19 26.506 17.238 26.5015 17.2545V17.2605C26.5188 17.3931 26.5654 17.5202 26.638 17.6325C26.7505 17.832 26.905 18.0405 27.1 18.3L27.115 18.318C27.292 18.555 27.505 18.8385 27.67 19.1325C27.838 19.4325 28 19.815 28 20.25C28 20.532 27.9025 20.802 27.8215 20.991C27.7348 21.1921 27.6335 21.3866 27.5185 21.573C27.4008 21.7697 27.2742 21.9609 27.139 22.146L27.112 22.1835L27.1045 22.1955L27.1015 22.1985C26.9824 22.3578 26.8048 22.4633 26.6079 22.4917C26.411 22.5201 26.2108 22.4692 26.0515 22.35C25.8922 22.2309 25.7867 22.0533 25.7583 21.8564C25.7299 21.6595 25.7809 21.4593 25.9 21.3L25.9045 21.294L25.9255 21.2655C26.0346 21.1153 26.1367 20.9602 26.2315 20.8005C26.312 20.6725 26.3827 20.5387 26.443 20.4C26.482 20.31 26.494 20.262 26.4985 20.2455C26.4825 20.111 26.4364 19.9817 26.3635 19.8675C26.2243 19.6348 26.0694 19.4118 25.9 19.2L25.885 19.182C25.6823 18.923 25.4969 18.6509 25.33 18.3675C25.1257 18.0296 25.012 17.6447 25 17.25C25 16.968 25.0975 16.698 25.1785 16.509C25.267 16.302 25.3795 16.098 25.4815 15.927C25.6007 15.7313 25.7273 15.5401 25.861 15.354L25.8985 15.3015C26.0176 15.1422 26.1952 15.0367 26.3921 15.0083C26.589 14.9799 26.7892 15.0309 26.9485 15.15C27.1078 15.2692 27.2133 15.4467 27.2417 15.6436C27.2701 15.8406 27.2191 16.0407 27.1 16.2ZM31.6 16.2L31.5955 16.206L31.5745 16.2345C31.4654 16.3847 31.3633 16.5399 31.2685 16.6995C31.188 16.8275 31.1173 16.9614 31.057 17.1C31.018 17.19 31.006 17.238 31.0015 17.2545V17.2605C31.0188 17.3931 31.0654 17.5202 31.138 17.6325C31.2505 17.832 31.405 18.0405 31.6 18.3L31.615 18.318C31.792 18.555 32.005 18.8385 32.17 19.1325C32.338 19.4325 32.5 19.815 32.5 20.25C32.5 20.532 32.4025 20.802 32.3215 20.991C32.2348 21.1921 32.1335 21.3866 32.0185 21.573C31.9013 21.7697 31.7752 21.9609 31.6405 22.146L31.612 22.1835L31.6045 22.1955L31.6015 22.1985C31.4824 22.3578 31.3048 22.4633 31.1079 22.4917C30.911 22.5201 30.7108 22.4692 30.5515 22.35C30.3922 22.2309 30.2867 22.0533 30.2583 21.8564C30.2299 21.6595 30.2809 21.4593 30.4 21.3L30.4045 21.294L30.4255 21.2655C30.5346 21.1153 30.6367 20.9602 30.7315 20.8005C30.812 20.6725 30.8827 20.5387 30.943 20.4C30.982 20.31 30.994 20.262 30.9985 20.2455C30.9825 20.111 30.9364 19.9817 30.8635 19.8675C30.7243 19.6348 30.5694 19.4118 30.4 19.2L30.385 19.182C30.1823 18.923 29.9969 18.6509 29.83 18.3675C29.6257 18.0296 29.512 17.6447 29.5 17.25C29.5 16.968 29.5975 16.698 29.6785 16.509C29.767 16.302 29.8795 16.098 29.9815 15.927C30.1007 15.7313 30.2273 15.5401 30.361 15.354L30.3985 15.3015C30.5176 15.1422 30.6952 15.0367 30.8921 15.0083C31.089 14.9799 31.2892 15.0309 31.4485 15.15C31.6078 15.2692 31.7133 15.4467 31.7417 15.6436C31.7701 15.8406 31.7191 16.0407 31.6 16.2Z" fill="black"/>
</g>
<path d="M50.1452 35V17.816H56.7212C58.1132 17.816 59.2932 18.248 60.2612 19.112C61.2292 19.976 61.7132 21.06 61.7132 22.364C61.7132 23.228 61.4972 23.98 61.0652 24.62C60.6332 25.252 60.0452 25.736 59.3012 26.072V26.156C60.1972 26.436 60.9212 26.932 61.4732 27.644C62.0252 28.348 62.3012 29.168 62.3012 30.104C62.3012 31.496 61.8012 32.66 60.8012 33.596C59.8012 34.532 58.5692 35 57.1052 35H50.1452ZM52.7612 32.696H56.8892C57.6652 32.696 58.3172 32.432 58.8452 31.904C59.3812 31.368 59.6492 30.724 59.6492 29.972C59.6492 29.22 59.3692 28.588 58.8092 28.076C58.2572 27.564 57.5892 27.308 56.8052 27.308H51.8132V25.16H56.4812C57.2492 25.16 57.8852 24.912 58.3892 24.416C58.8932 23.92 59.1452 23.328 59.1452 22.64C59.1452 21.952 58.8972 21.364 58.4012 20.876C57.9052 20.388 57.2852 20.144 56.5412 20.144H52.7612V32.696ZM69.084 35.384C67.636 35.384 66.516 34.964 65.724 34.124C64.932 33.284 64.536 32.092 64.536 30.548V22.712H67.14V30.14C67.14 31.14 67.368 31.904 67.824 32.432C68.288 32.96 68.948 33.224 69.804 33.224C70.708 33.224 71.468 32.88 72.084 32.192C72.7 31.504 73.008 30.672 73.008 29.696V22.712H75.6V35H73.14V32.084L74.316 33.26H73.068C72.716 33.884 72.176 34.396 71.448 34.796C70.728 35.188 69.94 35.384 69.084 35.384ZM79.4898 40.172C79.4898 40.172 79.4858 40.172 79.4778 40.172C79.4778 40.172 79.4818 40.172 79.4898 40.172L82.5618 33.464L82.6218 35.012L77.1738 22.712H79.9218L83.1858 30.464L83.4978 31.412H83.5698L83.9178 30.44L87.0018 22.712C86.9938 22.712 86.9898 22.712 86.9898 22.712C86.9978 22.712 87.0018 22.712 87.0018 22.712H89.7018L82.2018 40.172H79.4898ZM96.6482 35V22.712H99.1322V24.812L98.8922 24.512H99.2042C99.5562 23.872 100.088 23.348 100.8 22.94C101.52 22.532 102.28 22.328 103.08 22.328C103.96 22.328 104.736 22.536 105.408 22.952C106.08 23.368 106.564 23.94 106.86 24.668C107.324 23.9 107.92 23.32 108.648 22.928C109.376 22.528 110.184 22.328 111.072 22.328C112.48 22.328 113.552 22.748 114.288 23.588C115.024 24.42 115.392 25.596 115.392 27.116V35H112.812V27.56C112.812 26.552 112.604 25.804 112.188 25.316C111.772 24.828 111.136 24.584 110.28 24.584C109.448 24.584 108.748 24.924 108.18 25.604C107.612 26.276 107.328 27.104 107.328 28.088V35H104.724V27.584C104.724 26.576 104.516 25.824 104.1 25.328C103.684 24.824 103.052 24.572 102.204 24.572C101.364 24.572 100.66 24.92 100.092 25.616C99.5322 26.304 99.2522 27.14 99.2522 28.124V35H96.6482ZM123.814 35.384C121.974 35.384 120.47 34.772 119.302 33.548C118.142 32.316 117.562 30.748 117.562 28.844C117.562 26.964 118.138 25.408 119.29 24.176C120.442 22.944 121.906 22.328 123.682 22.328C125.458 22.328 126.894 22.872 127.99 23.96C129.094 25.04 129.646 26.4 129.646 28.04V29.36H118.954V27.608H127.078C127.03 26.72 126.702 25.984 126.094 25.4C125.486 24.816 124.682 24.524 123.682 24.524C122.618 24.524 121.754 24.912 121.09 25.688C120.426 26.456 120.094 27.496 120.094 28.808C120.094 30.152 120.466 31.224 121.21 32.024C121.954 32.824 122.89 33.224 124.018 33.224C124.546 33.224 125.002 33.152 125.386 33.008C125.778 32.864 126.126 32.664 126.43 32.408C126.742 32.152 127.094 31.736 127.486 31.16L129.37 32.276C128.89 33.116 128.386 33.74 127.858 34.148C127.33 34.556 126.746 34.864 126.106 35.072C125.474 35.28 124.71 35.384 123.814 35.384ZM141.14 35.384C139.78 35.384 138.68 35.008 137.84 34.256C137 33.496 136.58 32.512 136.58 31.304C136.58 30.064 137.06 29.072 138.02 28.328C138.988 27.584 140.24 27.212 141.776 27.212C142.432 27.212 143.068 27.284 143.684 27.428C144.3 27.564 144.8 27.74 145.184 27.956V27.224C145.184 26.384 144.892 25.712 144.308 25.208C143.724 24.696 142.964 24.44 142.028 24.44C141.508 24.44 141.068 24.5 140.708 24.62C140.356 24.74 140.04 24.892 139.76 25.076C139.488 25.252 139.232 25.46 138.992 25.7C138.76 25.94 138.644 26.06 138.644 26.06L137 24.632C137 24.632 137.176 24.464 137.528 24.128C137.88 23.784 138.272 23.48 138.704 23.216C139.136 22.944 139.624 22.728 140.168 22.568C140.72 22.408 141.388 22.328 142.172 22.328C143.892 22.328 145.24 22.764 146.216 23.636C147.192 24.5 147.68 25.7 147.68 27.236V35H145.196V32.168L145.94 33.308H145.124C144.748 33.924 144.2 34.424 143.48 34.808C142.768 35.192 141.988 35.384 141.14 35.384ZM141.644 33.368C142.636 33.368 143.472 33.016 144.152 32.312C144.84 31.608 145.184 30.736 145.184 29.696V29.684C144.816 29.444 144.372 29.256 143.852 29.12C143.34 28.984 142.8 28.916 142.232 28.916C141.28 28.916 140.52 29.108 139.952 29.492C139.392 29.876 139.112 30.456 139.112 31.232C139.112 31.88 139.348 32.4 139.82 32.792C140.292 33.176 140.9 33.368 141.644 33.368ZM161.538 35.384C159.698 35.384 158.182 34.768 156.99 33.536C155.798 32.304 155.202 30.732 155.202 28.82C155.202 26.9 155.802 25.34 157.002 24.14C158.202 22.932 159.714 22.328 161.538 22.328C162.33 22.328 163.058 22.44 163.722 22.664C164.394 22.888 165.006 23.248 165.558 23.744C166.11 24.232 166.594 24.936 167.01 25.856L164.778 26.756C164.49 26.188 164.194 25.756 163.89 25.46C163.586 25.156 163.23 24.936 162.822 24.8C162.422 24.664 161.986 24.596 161.514 24.596C160.482 24.596 159.594 24.984 158.85 25.76C158.114 26.528 157.746 27.544 157.746 28.808C157.746 30.072 158.11 31.108 158.838 31.916C159.574 32.716 160.466 33.116 161.514 33.116C161.994 33.116 162.438 33.044 162.846 32.9C163.262 32.748 163.614 32.54 163.902 32.276C164.198 32.004 164.526 31.552 164.886 30.92L167.082 31.82C166.626 32.772 166.134 33.484 165.606 33.956C165.078 34.42 164.47 34.772 163.782 35.012C163.094 35.26 162.346 35.384 161.538 35.384ZM174.9 35.384C173.036 35.384 171.492 34.764 170.268 33.524C169.052 32.284 168.444 30.724 168.444 28.844C168.444 26.948 169.056 25.388 170.28 24.164C171.504 22.94 173.044 22.328 174.9 22.328C176.748 22.328 178.284 22.944 179.508 24.176C180.74 25.408 181.356 26.964 181.356 28.844C181.356 30.724 180.748 32.284 179.532 33.524C178.316 34.764 176.772 35.384 174.9 35.384ZM174.9 33.104C175.996 33.104 176.916 32.708 177.66 31.916C178.412 31.116 178.788 30.092 178.788 28.844C178.788 27.58 178.412 26.56 177.66 25.784C176.908 25 175.988 24.608 174.9 24.608C173.796 24.608 172.868 25 172.116 25.784C171.372 26.568 171 27.588 171 28.844C171 30.092 171.372 31.116 172.116 31.916C172.86 32.708 173.788 33.104 174.9 33.104ZM184.415 35V21.38C184.415 20.196 184.791 19.244 185.543 18.524C186.295 17.796 187.279 17.432 188.495 17.432C188.799 17.432 189.079 17.452 189.335 17.492C189.599 17.524 189.847 17.568 190.079 17.624C190.319 17.68 190.439 17.708 190.439 17.708V19.928C190.439 19.928 190.339 19.904 190.139 19.856C189.947 19.8 189.739 19.756 189.515 19.724C189.299 19.692 189.063 19.676 188.807 19.676C188.287 19.676 187.859 19.836 187.523 20.156C187.187 20.468 187.019 20.92 187.019 21.512V23.348V23.828V35H184.415ZM192.431 35V21.38C192.431 20.196 192.807 19.244 193.559 18.524C194.311 17.796 195.295 17.432 196.511 17.432C196.815 17.432 197.095 17.452 197.351 17.492C197.615 17.524 197.863 17.568 198.095 17.624C198.335 17.68 198.455 17.708 198.455 17.708V19.928C198.455 19.928 198.355 19.904 198.155 19.856C197.963 19.8 197.755 19.756 197.531 19.724C197.315 19.692 197.079 19.676 196.823 19.676C196.303 19.676 195.875 19.836 195.539 20.156C195.203 20.468 195.035 20.92 195.035 21.512V23.348V23.828V35H192.431ZM182.303 24.884V22.712H185.723V24.884H182.303ZM193.727 24.884V22.712H197.999V24.884H193.727ZM185.687 24.884V22.712H193.727V24.884H185.687ZM205.071 35.384C203.231 35.384 201.727 34.772 200.559 33.548C199.399 32.316 198.819 30.748 198.819 28.844C198.819 26.964 199.395 25.408 200.547 24.176C201.699 22.944 203.163 22.328 204.939 22.328C206.715 22.328 208.151 22.872 209.247 23.96C210.351 25.04 210.903 26.4 210.903 28.04V29.36H200.211V27.608H208.335C208.287 26.72 207.959 25.984 207.351 25.4C206.743 24.816 205.939 24.524 204.939 24.524C203.875 24.524 203.011 24.912 202.347 25.688C201.683 26.456 201.351 27.496 201.351 28.808C201.351 30.152 201.723 31.224 202.467 32.024C203.211 32.824 204.147 33.224 205.275 33.224C205.803 33.224 206.259 33.152 206.643 33.008C207.035 32.864 207.383 32.664 207.687 32.408C207.999 32.152 208.351 31.736 208.743 31.16L210.627 32.276C210.147 33.116 209.643 33.74 209.115 34.148C208.587 34.556 208.003 34.864 207.363 35.072C206.731 35.28 205.967 35.384 205.071 35.384Z" fill="black"/>
<defs>
<clipPath id="clip0_2002_100">
<rect width="24" height="24" fill="white" transform="translate(16 15)"/>
</clipPath>
</defs>
</svg>
