<svg width="223" height="54" viewBox="0 0 223 54" fill="none" xmlns="http://www.w3.org/2000/svg">
<rect width="223" height="54" fill="#FFDD00"/>
<g clip-path="url(#clip0_2002_85)">
<path fill-rule="evenodd" clip-rule="evenodd" d="M16.7499 24C16.6377 24 16.5269 24.0253 16.4258 24.0738C16.3246 24.1224 16.2356 24.193 16.1653 24.2805C16.0951 24.3681 16.0454 24.4702 16.0199 24.5795C15.9944 24.6888 15.9937 24.8024 16.0179 24.912L18.4959 36.063C18.6809 36.8959 19.1444 37.6408 19.8098 38.1747C20.4752 38.7087 21.3028 38.9998 22.1559 39H30.8439C31.6971 38.9998 32.5247 38.7087 33.1901 38.1747C33.8555 37.6408 34.319 36.8959 34.504 36.063L34.7004 35.178C35.8478 35.3926 37.0337 35.153 38.0077 34.5097C38.9818 33.8664 39.6677 32.8698 39.9208 31.7303C40.1738 30.5907 39.9742 29.3975 39.364 28.4024C38.7538 27.4073 37.7808 26.6882 36.6504 26.397L36.9819 24.912C37.0062 24.8024 37.0055 24.6888 36.98 24.5795C36.9545 24.4702 36.9048 24.3681 36.8346 24.2805C36.7643 24.193 36.6753 24.1224 36.5741 24.0738C36.473 24.0253 36.3622 24 36.25 24H16.7499ZM35.5 33.75C35.3412 33.7501 35.1827 33.7375 35.0259 33.7125L36.3264 27.8655C37.0202 28.0664 37.6182 28.5108 38.0108 29.117C38.4034 29.7233 38.5642 30.4507 38.4638 31.166C38.3633 31.8812 38.0083 32.5363 37.4639 33.0109C36.9195 33.4855 36.2222 33.748 35.5 33.75ZM19.9599 35.7375L17.6844 25.5H35.3154L33.0399 35.7375C32.929 36.2373 32.651 36.6843 32.2517 37.0047C31.8525 37.3252 31.3559 37.4999 30.8439 37.5H22.1559C21.644 37.4999 21.1474 37.3252 20.7482 37.0047C20.3489 36.6843 20.0709 36.2373 19.9599 35.7375Z" fill="black"/>
<path d="M22.6 16.2L22.5955 16.206L22.5745 16.2345C22.4654 16.3847 22.3633 16.5399 22.2685 16.6995C22.188 16.8275 22.1173 16.9614 22.057 17.1C22.018 17.19 22.006 17.238 22.0015 17.2545V17.2605C22.0188 17.3931 22.0654 17.5202 22.138 17.6325C22.2505 17.832 22.405 18.0405 22.6 18.3L22.615 18.318C22.792 18.555 23.005 18.8385 23.17 19.1325C23.338 19.4325 23.5 19.815 23.5 20.25C23.5 20.532 23.4025 20.802 23.3215 20.991C23.2348 21.1921 23.1335 21.3866 23.0185 21.573C22.9008 21.7697 22.7742 21.9609 22.639 22.146L22.612 22.1835L22.6045 22.1955L22.6015 22.1985C22.4824 22.3578 22.3048 22.4633 22.1079 22.4917C21.911 22.5201 21.7108 22.4692 21.5515 22.35C21.3922 22.2309 21.2867 22.0533 21.2583 21.8564C21.2299 21.6595 21.2809 21.4593 21.4 21.3L21.4045 21.294L21.4255 21.2655C21.5346 21.1153 21.6367 20.9602 21.7315 20.8005C21.812 20.6725 21.8827 20.5387 21.943 20.4C21.982 20.31 21.994 20.262 21.9985 20.2455C21.9825 20.111 21.9364 19.9817 21.8635 19.8675C21.7243 19.6348 21.5694 19.4118 21.4 19.2L21.385 19.182C21.1823 18.923 20.9969 18.6509 20.83 18.3675C20.6257 18.0296 20.512 17.6447 20.5 17.25C20.5 16.968 20.5975 16.698 20.6785 16.509C20.767 16.302 20.8795 16.098 20.9815 15.927C21.1007 15.7313 21.2273 15.5401 21.361 15.354L21.3985 15.3015C21.5176 15.1422 21.6952 15.0367 21.8921 15.0083C22.089 14.9799 22.2892 15.0309 22.4485 15.15C22.6078 15.2692 22.7133 15.4467 22.7417 15.6436C22.7701 15.8406 22.7191 16.0407 22.6 16.2ZM27.1 16.2L27.0955 16.206L27.0745 16.2345C26.9654 16.3847 26.8633 16.5399 26.7685 16.6995C26.688 16.8275 26.6173 16.9614 26.557 17.1C26.518 17.19 26.506 17.238 26.5015 17.2545V17.2605C26.5188 17.3931 26.5654 17.5202 26.638 17.6325C26.7505 17.832 26.905 18.0405 27.1 18.3L27.115 18.318C27.292 18.555 27.505 18.8385 27.67 19.1325C27.838 19.4325 28 19.815 28 20.25C28 20.532 27.9025 20.802 27.8215 20.991C27.7348 21.1921 27.6335 21.3866 27.5185 21.573C27.4008 21.7697 27.2742 21.9609 27.139 22.146L27.112 22.1835L27.1045 22.1955L27.1015 22.1985C26.9824 22.3578 26.8048 22.4633 26.6079 22.4917C26.411 22.5201 26.2108 22.4692 26.0515 22.35C25.8922 22.2309 25.7867 22.0533 25.7583 21.8564C25.7299 21.6595 25.7809 21.4593 25.9 21.3L25.9045 21.294L25.9255 21.2655C26.0346 21.1153 26.1367 20.9602 26.2315 20.8005C26.312 20.6725 26.3827 20.5387 26.443 20.4C26.482 20.31 26.494 20.262 26.4985 20.2455C26.4825 20.111 26.4364 19.9817 26.3635 19.8675C26.2243 19.6348 26.0694 19.4118 25.9 19.2L25.885 19.182C25.6823 18.923 25.4969 18.6509 25.33 18.3675C25.1257 18.0296 25.012 17.6447 25 17.25C25 16.968 25.0975 16.698 25.1785 16.509C25.267 16.302 25.3795 16.098 25.4815 15.927C25.6007 15.7313 25.7273 15.5401 25.861 15.354L25.8985 15.3015C26.0176 15.1422 26.1952 15.0367 26.3921 15.0083C26.589 14.9799 26.7892 15.0309 26.9485 15.15C27.1078 15.2692 27.2133 15.4467 27.2417 15.6436C27.2701 15.8406 27.2191 16.0407 27.1 16.2ZM31.6 16.2L31.5955 16.206L31.5745 16.2345C31.4654 16.3847 31.3633 16.5399 31.2685 16.6995C31.188 16.8275 31.1173 16.9614 31.057 17.1C31.018 17.19 31.006 17.238 31.0015 17.2545V17.2605C31.0188 17.3931 31.0654 17.5202 31.138 17.6325C31.2505 17.832 31.405 18.0405 31.6 18.3L31.615 18.318C31.792 18.555 32.005 18.8385 32.17 19.1325C32.338 19.4325 32.5 19.815 32.5 20.25C32.5 20.532 32.4025 20.802 32.3215 20.991C32.2348 21.1921 32.1335 21.3866 32.0185 21.573C31.9013 21.7697 31.7752 21.9609 31.6405 22.146L31.612 22.1835L31.6045 22.1955L31.6015 22.1985C31.4824 22.3578 31.3048 22.4633 31.1079 22.4917C30.911 22.5201 30.7108 22.4692 30.5515 22.35C30.3922 22.2309 30.2867 22.0533 30.2583 21.8564C30.2299 21.6595 30.2809 21.4593 30.4 21.3L30.4045 21.294L30.4255 21.2655C30.5346 21.1153 30.6367 20.9602 30.7315 20.8005C30.812 20.6725 30.8827 20.5387 30.943 20.4C30.982 20.31 30.994 20.262 30.9985 20.2455C30.9825 20.111 30.9364 19.9817 30.8635 19.8675C30.7243 19.6348 30.5694 19.4118 30.4 19.2L30.385 19.182C30.1823 18.923 29.9969 18.6509 29.83 18.3675C29.6257 18.0296 29.512 17.6447 29.5 17.25C29.5 16.968 29.5975 16.698 29.6785 16.509C29.767 16.302 29.8795 16.098 29.9815 15.927C30.1007 15.7313 30.2273 15.5401 30.361 15.354L30.3985 15.3015C30.5176 15.1422 30.6952 15.0367 30.8921 15.0083C31.089 14.9799 31.2892 15.0309 31.4485 15.15C31.6078 15.2692 31.7133 15.4467 31.7417 15.6436C31.7701 15.8406 31.7191 16.0407 31.6 16.2Z" fill="black"/>
</g>
<path d="M50.2258 35V17.816H56.1178C57.5338 17.816 58.7098 18.24 59.6458 19.088C60.5818 19.928 61.0498 21.004 61.0498 22.316C61.0498 23.204 60.8018 23.984 60.3058 24.656C59.8178 25.32 59.1738 25.8 58.3738 26.096V26.168C59.3098 26.392 60.0858 26.864 60.7018 27.584C61.3258 28.296 61.6378 29.16 61.6378 30.176C61.6378 31.56 61.1498 32.712 60.1738 33.632C59.2058 34.544 57.9778 35 56.4898 35H50.2258ZM51.8458 33.464H56.5738C57.5898 33.464 58.4138 33.144 59.0458 32.504C59.6858 31.864 60.0058 31.088 60.0058 30.176C60.0058 29.256 59.6698 28.492 58.9978 27.884C58.3258 27.276 57.4978 26.972 56.5138 26.972H51.0898V25.436H56.2378C57.1658 25.436 57.9338 25.132 58.5418 24.524C59.1498 23.908 59.4538 23.192 59.4538 22.376C59.4538 21.52 59.1538 20.804 58.5538 20.228C57.9538 19.644 57.1658 19.352 56.1898 19.352H51.8458V33.464ZM68.5879 35.372C67.1719 35.372 66.0759 34.956 65.2999 34.124C64.5319 33.284 64.1479 32.092 64.1479 30.548V22.808H65.7559V30.296C65.7559 31.464 66.0279 32.36 66.5719 32.984C67.1159 33.6 67.9039 33.908 68.9359 33.908C70.0399 33.908 70.9479 33.504 71.6599 32.696C72.3719 31.88 72.7279 30.872 72.7279 29.672V22.808H74.3359V35H72.7999V32.084L73.5319 32.804H72.7399C72.4279 33.548 71.8919 34.164 71.1319 34.652C70.3799 35.132 69.5319 35.372 68.5879 35.372ZM78.5535 40.16L81.4695 33.716L81.5295 34.964L76.1895 22.808H77.9295L81.6975 31.7L81.9855 32.48H82.0335L82.3335 31.688L85.9575 22.808H87.6855L80.2455 40.16H78.5535ZM94.971 35V22.808H96.507V25.196L96.327 24.992H96.567C96.863 24.264 97.379 23.66 98.115 23.18C98.859 22.692 99.671 22.448 100.551 22.448C101.487 22.448 102.287 22.684 102.951 23.156C103.623 23.628 104.083 24.288 104.331 25.136C104.715 24.28 105.283 23.62 106.035 23.156C106.787 22.684 107.643 22.448 108.603 22.448C109.939 22.448 110.963 22.852 111.675 23.66C112.395 24.468 112.755 25.608 112.755 27.08V35H111.159V27.332C111.159 26.188 110.915 25.332 110.427 24.764C109.939 24.188 109.203 23.9 108.219 23.9C107.195 23.9 106.347 24.288 105.675 25.064C105.003 25.84 104.667 26.816 104.667 27.992V35H103.071V27.416C103.071 26.24 102.823 25.36 102.327 24.776C101.839 24.192 101.103 23.9 100.119 23.9C99.103 23.9 98.259 24.3 97.587 25.1C96.915 25.9 96.579 26.888 96.579 28.064V35H94.971ZM121.146 35.372C119.402 35.372 117.966 34.772 116.838 33.572C115.718 32.364 115.158 30.804 115.158 28.892C115.158 27.028 115.71 25.488 116.814 24.272C117.918 23.056 119.326 22.448 121.038 22.448C122.758 22.448 124.134 22.972 125.166 24.02C126.206 25.068 126.726 26.408 126.726 28.04V29.084H116.106V27.752H125.046C125.006 26.616 124.626 25.692 123.906 24.98C123.194 24.26 122.238 23.9 121.038 23.9C119.766 23.9 118.734 24.356 117.942 25.268C117.158 26.172 116.766 27.38 116.766 28.892C116.766 30.428 117.194 31.648 118.05 32.552C118.906 33.456 119.962 33.908 121.218 33.908C121.906 33.908 122.478 33.8 122.934 33.584C123.398 33.368 123.794 33.104 124.122 32.792C124.45 32.472 124.786 32.04 125.13 31.496L126.498 32.168C126.122 32.912 125.694 33.5 125.214 33.932C124.734 34.356 124.17 34.704 123.522 34.976C122.882 35.24 122.09 35.372 121.146 35.372ZM138.466 35.372C137.138 35.372 136.054 34.996 135.214 34.244C134.382 33.492 133.966 32.512 133.966 31.304C133.966 30.064 134.434 29.08 135.37 28.352C136.314 27.616 137.526 27.248 139.006 27.248C139.75 27.248 140.462 27.344 141.142 27.536C141.83 27.72 142.366 27.952 142.75 28.232V27.152C142.75 26.152 142.414 25.356 141.742 24.764C141.07 24.172 140.222 23.876 139.198 23.876C138.598 23.876 138.09 23.96 137.674 24.128C137.266 24.296 136.93 24.488 136.666 24.704C136.41 24.912 136.178 25.132 135.97 25.364C135.77 25.596 135.67 25.712 135.67 25.712L134.434 24.812C134.434 24.812 134.566 24.66 134.83 24.356C135.102 24.052 135.426 23.756 135.802 23.468C136.186 23.18 136.638 22.94 137.158 22.748C137.686 22.548 138.37 22.448 139.21 22.448C140.754 22.448 141.986 22.864 142.906 23.696C143.826 24.528 144.286 25.68 144.286 27.152V35H142.75V31.868L143.314 32.816H142.69C142.338 33.552 141.782 34.164 141.022 34.652C140.262 35.132 139.41 35.372 138.466 35.372ZM138.61 33.932C139.77 33.932 140.75 33.524 141.55 32.708C142.35 31.892 142.75 30.892 142.75 29.708V29.648C142.35 29.304 141.834 29.04 141.202 28.856C140.578 28.664 139.926 28.568 139.246 28.568C138.134 28.568 137.25 28.804 136.594 29.276C135.938 29.74 135.61 30.424 135.61 31.328C135.61 32.112 135.894 32.744 136.462 33.224C137.03 33.696 137.746 33.932 138.61 33.932ZM158.168 35.372C156.384 35.372 154.924 34.764 153.788 33.548C152.66 32.332 152.096 30.768 152.096 28.856C152.096 26.944 152.672 25.4 153.824 24.224C154.984 23.04 156.436 22.448 158.18 22.448C158.948 22.448 159.648 22.56 160.28 22.784C160.912 23 161.484 23.344 161.996 23.816C162.516 24.28 162.968 24.936 163.352 25.784L161.936 26.396C161.616 25.764 161.28 25.272 160.928 24.92C160.576 24.568 160.164 24.312 159.692 24.152C159.22 23.984 158.696 23.9 158.12 23.9C156.88 23.9 155.832 24.352 154.976 25.256C154.12 26.152 153.692 27.352 153.692 28.856C153.692 30.36 154.112 31.58 154.952 32.516C155.792 33.444 156.844 33.908 158.108 33.908C158.684 33.908 159.212 33.82 159.692 33.644C160.172 33.468 160.584 33.22 160.928 32.9C161.28 32.572 161.652 32.056 162.044 31.352L163.424 32.024C162.968 32.912 162.488 33.58 161.984 34.028C161.48 34.468 160.904 34.8 160.256 35.024C159.616 35.256 158.92 35.372 158.168 35.372ZM171.272 35.372C169.472 35.372 167.988 34.76 166.82 33.536C165.66 32.312 165.08 30.764 165.08 28.892C165.08 27.004 165.668 25.46 166.844 24.26C168.02 23.052 169.496 22.448 171.272 22.448C173.04 22.448 174.512 23.06 175.688 24.284C176.864 25.5 177.452 27.036 177.452 28.892C177.452 30.756 176.872 32.304 175.712 33.536C174.552 34.76 173.072 35.372 171.272 35.372ZM171.272 33.908C172.576 33.908 173.664 33.444 174.536 32.516C175.408 31.58 175.844 30.372 175.844 28.892C175.844 27.404 175.404 26.2 174.524 25.28C173.644 24.36 172.56 23.9 171.272 23.9C169.976 23.9 168.888 24.36 168.008 25.28C167.128 26.2 166.688 27.404 166.688 28.892C166.688 30.38 167.12 31.588 167.984 32.516C168.856 33.444 169.952 33.908 171.272 33.908ZM180.96 35V21.104C180.96 20 181.292 19.116 181.956 18.452C182.62 17.788 183.492 17.456 184.572 17.456C184.892 17.456 185.172 17.476 185.412 17.516C185.652 17.556 185.872 17.604 186.072 17.66C186.28 17.716 186.384 17.744 186.384 17.744V19.256C186.384 19.256 186.276 19.224 186.06 19.16C185.852 19.096 185.632 19.048 185.4 19.016C185.168 18.976 184.912 18.956 184.632 18.956C184.008 18.956 183.508 19.148 183.132 19.532C182.756 19.908 182.568 20.46 182.568 21.188V23.156V23.54V35H180.96ZM188.412 35V21.104C188.412 20 188.744 19.116 189.408 18.452C190.072 17.788 190.944 17.456 192.024 17.456C192.344 17.456 192.624 17.476 192.864 17.516C193.104 17.556 193.324 17.604 193.524 17.66C193.732 17.716 193.836 17.744 193.836 17.744V19.256C193.836 19.256 193.728 19.224 193.512 19.16C193.304 19.096 193.084 19.048 192.852 19.016C192.62 18.976 192.364 18.956 192.084 18.956C191.46 18.956 190.96 19.148 190.584 19.532C190.208 19.908 190.02 20.46 190.02 21.188V23.156V23.54V35H188.412ZM178.572 24.272V22.808H181.764V24.272H178.572ZM189.192 24.272V22.808H193.32V24.272H189.192ZM181.728 24.272V22.808H189.192V24.272H181.728ZM200.225 35.372C198.481 35.372 197.045 34.772 195.917 33.572C194.797 32.364 194.237 30.804 194.237 28.892C194.237 27.028 194.789 25.488 195.893 24.272C196.997 23.056 198.405 22.448 200.117 22.448C201.837 22.448 203.213 22.972 204.245 24.02C205.285 25.068 205.805 26.408 205.805 28.04V29.084H195.185V27.752H204.125C204.085 26.616 203.705 25.692 202.985 24.98C202.273 24.26 201.317 23.9 200.117 23.9C198.845 23.9 197.813 24.356 197.021 25.268C196.237 26.172 195.845 27.38 195.845 28.892C195.845 30.428 196.273 31.648 197.129 32.552C197.985 33.456 199.041 33.908 200.297 33.908C200.985 33.908 201.557 33.8 202.013 33.584C202.477 33.368 202.873 33.104 203.201 32.792C203.529 32.472 203.865 32.04 204.209 31.496L205.577 32.168C205.201 32.912 204.773 33.5 204.293 33.932C203.813 34.356 203.249 34.704 202.601 34.976C201.961 35.24 201.169 35.372 200.225 35.372Z" fill="black"/>
<defs>
<clipPath id="clip0_2002_85">
<rect width="24" height="24" fill="white" transform="translate(16 15)"/>
</clipPath>
</defs>
</svg>
