<svg width="545" height="153" viewBox="0 0 545 153" fill="none" xmlns="http://www.w3.org/2000/svg">
<g clip-path="url(#clip0_1_2)">
<path d="M0 24.48C0 10.9601 10.9601 0 24.48 0H520.2C533.72 0 544.68 10.9601 544.68 24.48V128.52C544.68 142.04 533.72 153 520.2 153H24.48C10.9601 153 0 142.04 0 128.52V24.48Z" fill="#003087"/>
<g clip-path="url(#clip1_1_2)">
<path d="M119.875 50.2063C120.625 43.5125 119.294 38.7563 115.487 34.4188C110.925 29.225 102.7 27 92.1625 27H61.5875C60.5467 27.0005 59.5401 27.372 58.7485 28.0478C57.957 28.7237 57.4323 29.6596 57.2687 30.6875L44.5312 111.431C44.4716 111.806 44.494 112.19 44.5969 112.555C44.6998 112.921 44.8808 113.26 45.1274 113.548C45.374 113.837 45.6803 114.069 46.0251 114.228C46.37 114.387 46.7453 114.469 47.125 114.469H64.35L63.0875 122.469C62.999 123.029 63.0329 123.602 63.1869 124.147C63.341 124.693 63.6114 125.199 63.9797 125.63C64.3479 126.061 64.8053 126.408 65.3202 126.645C65.8351 126.883 66.3954 127.006 66.9625 127.006H82.875C85.5562 127.006 87.8312 125.069 88.2625 122.438L88.4187 121.625L91.4187 102.606L91.6062 101.581L91.6125 101.537C91.692 101.019 91.9554 100.546 92.3547 100.205C92.754 99.864 93.2625 99.6782 93.7875 99.6813H96.1625C104.075 99.6813 111.319 98.0812 117.069 93.9938C119.444 92.3146 121.512 90.2208 123.275 87.7125C126.192 83.6523 128.079 78.9445 128.775 73.9938C130.287 66.2062 129.587 59.2687 125.212 54.2812C123.863 52.7776 122.254 51.5286 120.462 50.5938L119.875 50.2063ZM72.8937 82.125C73.5135 81.8026 74.2014 81.6333 74.9 81.6313H83.875C101.5 81.6313 115.294 74.4813 119.325 53.7812L119.344 53.6812C120.702 54.4563 121.844 55.3687 122.769 56.4187C126.181 60.3125 127.012 66.0125 125.581 73.3562C123.881 82.0875 120.169 87.775 115.187 91.3188C110.175 94.8812 103.675 96.4125 96.1687 96.4125H93.7937C92.495 96.407 91.2371 96.8665 90.2478 97.708C89.2585 98.5494 88.603 99.7172 88.4 101L88.2125 102.025L85.2125 121.044L85.0625 121.856L85.0562 121.881C84.9754 122.399 84.7114 122.871 84.3122 123.21C83.913 123.55 83.4053 123.735 82.8812 123.731H66.9687C66.8726 123.732 66.7775 123.711 66.69 123.671C66.6026 123.631 66.525 123.572 66.4625 123.499C66.4001 123.426 66.3543 123.34 66.3284 123.247C66.3025 123.155 66.2971 123.057 66.3125 122.963L67.6125 114.713L72.8937 82.125Z" fill="white"/>
</g>
<path d="M165.441 90V61.5625H175.227C178.951 61.5625 181.945 62.7409 184.211 65.0977C186.49 67.4414 187.629 70.7161 187.629 74.9219V76.582C187.629 80.7878 186.49 84.0755 184.211 86.4453C181.945 88.8151 178.951 90 175.227 90H165.441ZM171.809 85.3516H174.797C176.737 85.3516 178.26 84.668 179.367 83.3008C180.487 81.9206 181.047 79.8763 181.047 77.168V74.4141C181.047 71.6797 180.48 69.6484 179.348 68.3203C178.215 66.9922 176.698 66.3216 174.797 66.3086H171.809V85.3516ZM190.168 80.7031V80.0781C190.168 77.1094 191.125 74.7331 193.039 72.9492C194.953 71.1654 197.473 70.2734 200.598 70.2734C203.723 70.2734 206.236 71.1654 208.137 72.9492C210.051 74.7331 211.008 77.1094 211.008 80.0781V80.7031C211.008 83.6849 210.051 86.0677 208.137 87.8516C206.236 89.6354 203.723 90.5273 200.598 90.5273C197.46 90.5273 194.934 89.6354 193.02 87.8516C191.118 86.0677 190.168 83.6849 190.168 80.7031ZM196.555 79.8047V80.957C196.555 82.5326 196.9 83.7695 197.59 84.668C198.28 85.5534 199.276 85.9961 200.578 85.9961C201.893 85.9961 202.896 85.5534 203.586 84.668C204.276 83.7695 204.621 82.5326 204.621 80.957V79.8047C204.621 78.2552 204.27 77.0443 203.566 76.1719C202.876 75.2865 201.88 74.8438 200.578 74.8438C199.289 74.8438 198.293 75.2865 197.59 76.1719C196.9 77.0443 196.555 78.2552 196.555 79.8047ZM214.113 90V70.8594H220.227L220.285 73.2617H220.363C220.858 72.4023 221.613 71.7122 222.629 71.1914C223.658 70.6706 224.862 70.4102 226.242 70.4102C228.221 70.4102 229.823 70.9635 231.047 72.0703C232.284 73.1641 232.902 75.0326 232.902 77.6758V90H226.613V78.2617C226.613 77.1159 226.372 76.3086 225.891 75.8398C225.409 75.3581 224.725 75.1172 223.84 75.1172C223.098 75.1172 222.421 75.3385 221.809 75.7812C221.197 76.224 220.728 76.8164 220.402 77.5586V90H214.113ZM235.891 84.4336C235.891 82.4154 236.685 80.8529 238.273 79.7461C239.862 78.6393 241.926 78.0794 244.465 78.0664H248.781V76.9141C248.781 76.0547 248.566 75.3776 248.137 74.8828C247.707 74.388 246.978 74.1406 245.949 74.1406C244.934 74.1406 244.185 74.349 243.703 74.7656C243.221 75.1823 242.98 75.7357 242.98 76.4258V76.7773L237.062 76.7578V76.3672C237.062 74.5833 237.902 73.1315 239.582 72.0117C241.262 70.8919 243.508 70.332 246.32 70.332C249.172 70.332 251.34 70.8724 252.824 71.9531C254.309 73.0339 255.051 74.7461 255.051 77.0898V85.6445C255.051 86.4388 255.122 87.1875 255.266 87.8906C255.409 88.5938 255.611 89.1992 255.871 89.707V90H249.68C249.497 89.6875 249.348 89.3034 249.23 88.8477C249.113 88.3919 249.029 87.9297 248.977 87.4609C248.56 88.1901 247.798 88.8477 246.691 89.4336C245.585 90.0195 244.204 90.3125 242.551 90.3125C240.559 90.3125 238.951 89.8242 237.727 88.8477C236.503 87.8581 235.891 86.3867 235.891 84.4336ZM242.141 83.9258C242.141 84.7591 242.375 85.4036 242.844 85.8594C243.312 86.3151 244.022 86.543 244.973 86.543C246.001 86.543 246.893 86.1979 247.648 85.5078C248.404 84.8177 248.781 84.0104 248.781 83.0859V81.4453H246.008C244.693 81.4453 243.716 81.6471 243.078 82.0508C242.453 82.4544 242.141 83.0794 242.141 83.9258ZM257.277 75.3906V70.8594H270.285V75.3906H257.277ZM260.207 84.1406V72.3242L260.324 71.9336V65.3906H266.398V83.1641C266.398 84.2969 266.568 85.0456 266.906 85.4102C267.245 85.7617 267.759 85.9375 268.449 85.9375C268.775 85.9375 269.087 85.9115 269.387 85.8594C269.686 85.7943 269.979 85.7096 270.266 85.6055V89.9414C269.927 90.0716 269.426 90.1888 268.762 90.293C268.098 90.4102 267.297 90.4688 266.359 90.4688C264.432 90.4688 262.922 89.9674 261.828 88.9648C260.747 87.9622 260.207 86.3542 260.207 84.1406ZM272.004 80.7031V80.0781C272.004 77.1094 272.935 74.7396 274.797 72.9688C276.659 71.1849 279.1 70.293 282.121 70.293C285.129 70.293 287.46 71.1393 289.113 72.832C290.767 74.5117 291.594 76.8359 291.594 79.8047V81.7188H275.734V78.3008H285.48V78.0273C285.48 77.0768 285.194 76.2826 284.621 75.6445C284.048 75.0065 283.202 74.6875 282.082 74.6875C280.832 74.6875 279.882 75.1432 279.23 76.0547C278.592 76.9531 278.273 78.112 278.273 79.5312V80.8594C278.273 82.487 278.618 83.763 279.309 84.6875C280.012 85.599 281.04 86.0547 282.395 86.0547C283.358 86.0547 284.172 85.8398 284.836 85.4102C285.513 84.9805 286.047 84.4401 286.438 83.7891L291.379 85.7812C290.754 87.2266 289.699 88.3789 288.215 89.2383C286.73 90.0977 284.81 90.5273 282.453 90.5273C279.172 90.5273 276.607 89.6419 274.758 87.8711C272.922 86.0872 272.004 83.6979 272.004 80.7031ZM302.238 70.8594H308.332L311.125 81.0938C311.255 81.5755 311.359 82.0052 311.438 82.3828C311.529 82.7474 311.613 83.138 311.691 83.5547H311.789C311.88 83.138 311.965 82.7474 312.043 82.3828C312.121 82.0052 312.232 81.5755 312.375 81.0938L315.441 70.8594H321.242L324.348 81.1523C324.491 81.6211 324.608 82.0443 324.699 82.4219C324.79 82.7995 324.882 83.1901 324.973 83.5938H325.07C325.148 83.1771 325.227 82.7799 325.305 82.4023C325.396 82.0117 325.493 81.5951 325.598 81.1523L328.371 70.8594H333.859L328.117 90H321.965L318.625 79.5703C318.508 79.1797 318.404 78.7956 318.312 78.418C318.221 78.0404 318.137 77.6497 318.059 77.2461H317.961C317.883 77.6497 317.798 78.0404 317.707 78.418C317.616 78.7956 317.512 79.1797 317.395 79.5703L314.211 90H308L302.238 70.8594ZM336.145 90V70.8594H342.492V90H336.145ZM335.734 64.8047C335.734 63.8802 336.04 63.1055 336.652 62.4805C337.277 61.8555 338.169 61.543 339.328 61.543C340.487 61.543 341.372 61.8555 341.984 62.4805C342.596 63.0924 342.902 63.8672 342.902 64.8047C342.902 65.7292 342.59 66.5104 341.965 67.1484C341.34 67.7865 340.448 68.1055 339.289 68.1055C338.143 68.1055 337.264 67.7865 336.652 67.1484C336.04 66.4974 335.734 65.7161 335.734 64.8047ZM344.699 75.3906V70.8594H357.707V75.3906H344.699ZM347.629 84.1406V72.3242L347.746 71.9336V65.3906H353.82V83.1641C353.82 84.2969 353.99 85.0456 354.328 85.4102C354.667 85.7617 355.181 85.9375 355.871 85.9375C356.197 85.9375 356.509 85.9115 356.809 85.8594C357.108 85.7943 357.401 85.7096 357.688 85.6055V89.9414C357.349 90.0716 356.848 90.1888 356.184 90.293C355.52 90.4102 354.719 90.4688 353.781 90.4688C351.854 90.4688 350.344 89.9674 349.25 88.9648C348.169 87.9622 347.629 86.3542 347.629 84.1406ZM360.402 90V60.8789H366.691V73.3984C367.199 72.513 367.961 71.7969 368.977 71.25C369.992 70.6901 371.249 70.4102 372.746 70.4102C374.621 70.4102 376.151 70.9701 377.336 72.0898C378.534 73.1966 379.133 75.013 379.133 77.5391V90H372.863V78.3594C372.863 77.1875 372.609 76.3542 372.102 75.8594C371.594 75.3646 370.897 75.1172 370.012 75.1172C369.243 75.1172 368.573 75.3451 368 75.8008C367.427 76.2565 366.991 76.8685 366.691 77.6367V90H360.402ZM392.941 90V61.5625H404.406C407.479 61.5625 409.829 62.4154 411.457 64.1211C413.098 65.8268 413.918 68.138 413.918 71.0547C413.918 73.9844 413.111 76.3086 411.496 78.0273C409.882 79.7331 407.492 80.5859 404.328 80.5859H399.426V90H392.941ZM399.426 76.0156H403.195C404.784 76.0156 405.891 75.5664 406.516 74.668C407.141 73.7565 407.453 72.5846 407.453 71.1523C407.453 69.7331 407.141 68.5807 406.516 67.6953C405.891 66.7969 404.784 66.3411 403.195 66.3281H399.426V76.0156ZM415.5 84.4336C415.5 82.4154 416.294 80.8529 417.883 79.7461C419.471 78.6393 421.535 78.0794 424.074 78.0664H428.391V76.9141C428.391 76.0547 428.176 75.3776 427.746 74.8828C427.316 74.388 426.587 74.1406 425.559 74.1406C424.543 74.1406 423.794 74.349 423.312 74.7656C422.831 75.1823 422.59 75.7357 422.59 76.4258V76.7773L416.672 76.7578V76.3672C416.672 74.5833 417.512 73.1315 419.191 72.0117C420.871 70.8919 423.117 70.332 425.93 70.332C428.781 70.332 430.949 70.8724 432.434 71.9531C433.918 73.0339 434.66 74.7461 434.66 77.0898V85.6445C434.66 86.4388 434.732 87.1875 434.875 87.8906C435.018 88.5938 435.22 89.1992 435.48 89.707V90H429.289C429.107 89.6875 428.957 89.3034 428.84 88.8477C428.723 88.3919 428.638 87.9297 428.586 87.4609C428.169 88.1901 427.408 88.8477 426.301 89.4336C425.194 90.0195 423.814 90.3125 422.16 90.3125C420.168 90.3125 418.56 89.8242 417.336 88.8477C416.112 87.8581 415.5 86.3867 415.5 84.4336ZM421.75 83.9258C421.75 84.7591 421.984 85.4036 422.453 85.8594C422.922 86.3151 423.632 86.543 424.582 86.543C425.611 86.543 426.503 86.1979 427.258 85.5078C428.013 84.8177 428.391 84.0104 428.391 83.0859V81.4453H425.617C424.302 81.4453 423.326 81.6471 422.688 82.0508C422.062 82.4544 421.75 83.0794 421.75 83.9258ZM437.453 98.0859L437.473 93.7891C437.876 93.8932 438.286 93.9714 438.703 94.0234C439.133 94.0755 439.549 94.1016 439.953 94.1016C440.852 94.1016 441.626 93.8086 442.277 93.2227C442.928 92.6367 443.495 91.5625 443.977 90L443.879 89.9805L436.32 70.8594H442.531L446.242 81.5625C446.398 81.9792 446.516 82.3568 446.594 82.6953C446.685 83.0208 446.776 83.3594 446.867 83.7109H446.945C447.036 83.3594 447.128 83.0208 447.219 82.6953C447.31 82.3568 447.427 81.9792 447.57 81.5625L451.34 70.8594H456.965L449.23 91.3867C448.241 93.9648 447.102 95.7943 445.812 96.875C444.523 97.9688 442.883 98.5156 440.891 98.5156C440.083 98.5156 439.419 98.4766 438.898 98.3984C438.378 98.3333 437.896 98.2292 437.453 98.0859ZM458.879 98.2617V70.8594H464.914L464.973 73.1055L465.051 73.0859C465.507 72.3307 466.249 71.6992 467.277 71.1914C468.306 70.6706 469.465 70.4102 470.754 70.4102C473.215 70.4102 475.194 71.2695 476.691 72.9883C478.189 74.694 478.938 77.0443 478.938 80.0391V80.6641C478.938 83.6198 478.182 85.9831 476.672 87.7539C475.174 89.5117 473.215 90.3906 470.793 90.3906C469.491 90.3906 468.365 90.1823 467.414 89.7656C466.464 89.3359 465.708 88.763 465.148 88.0469V98.2617H458.879ZM465.148 83.4375C465.422 84.1016 465.878 84.6875 466.516 85.1953C467.154 85.6901 467.915 85.9375 468.801 85.9375C470.077 85.9375 471.021 85.4883 471.633 84.5898C472.258 83.6784 472.57 82.4674 472.57 80.957V79.8242C472.57 78.2878 472.258 77.0898 471.633 76.2305C471.021 75.3581 470.077 74.9219 468.801 74.9219C467.889 74.9219 467.121 75.1693 466.496 75.6641C465.871 76.1458 465.422 76.7188 465.148 77.3828V83.4375ZM481.125 84.4336C481.125 82.4154 481.919 80.8529 483.508 79.7461C485.096 78.6393 487.16 78.0794 489.699 78.0664H494.016V76.9141C494.016 76.0547 493.801 75.3776 493.371 74.8828C492.941 74.388 492.212 74.1406 491.184 74.1406C490.168 74.1406 489.419 74.349 488.938 74.7656C488.456 75.1823 488.215 75.7357 488.215 76.4258V76.7773L482.297 76.7578V76.3672C482.297 74.5833 483.137 73.1315 484.816 72.0117C486.496 70.8919 488.742 70.332 491.555 70.332C494.406 70.332 496.574 70.8724 498.059 71.9531C499.543 73.0339 500.285 74.7461 500.285 77.0898V85.6445C500.285 86.4388 500.357 87.1875 500.5 87.8906C500.643 88.5938 500.845 89.1992 501.105 89.707V90H494.914C494.732 89.6875 494.582 89.3034 494.465 88.8477C494.348 88.3919 494.263 87.9297 494.211 87.4609C493.794 88.1901 493.033 88.8477 491.926 89.4336C490.819 90.0195 489.439 90.3125 487.785 90.3125C485.793 90.3125 484.185 89.8242 482.961 88.8477C481.737 87.8581 481.125 86.3867 481.125 84.4336ZM487.375 83.9258C487.375 84.7591 487.609 85.4036 488.078 85.8594C488.547 86.3151 489.257 86.543 490.207 86.543C491.236 86.543 492.128 86.1979 492.883 85.5078C493.638 84.8177 494.016 84.0104 494.016 83.0859V81.4453H491.242C489.927 81.4453 488.951 81.6471 488.312 82.0508C487.688 82.4544 487.375 83.0794 487.375 83.9258ZM504.445 90V60.8789H510.773V90H504.445Z" fill="white"/>
</g>
<defs>
<clipPath id="clip0_1_2">
<rect width="545" height="153" fill="white"/>
</clipPath>
<clipPath id="clip1_1_2">
<rect width="100" height="100" fill="white" transform="translate(32 27)"/>
</clipPath>
</defs>
</svg>
