<svg width="237" height="54" viewBox="0 0 237 54" fill="none" xmlns="http://www.w3.org/2000/svg">
<rect width="237" height="54" fill="#003087"/>
<g clip-path="url(#clip0_2002_54)">
<path d="M37.09 20.5695C37.27 18.963 36.9505 17.8215 36.037 16.7805C34.942 15.534 32.968 15 30.439 15H23.101C22.8512 15.0001 22.6096 15.0893 22.4197 15.2515C22.2297 15.4137 22.1038 15.6383 22.0645 15.885L19.0075 35.2635C18.9932 35.3535 18.9986 35.4455 19.0233 35.5333C19.048 35.621 19.0914 35.7023 19.1506 35.7716C19.2098 35.8409 19.2833 35.8965 19.3661 35.9347C19.4488 35.9728 19.5389 35.9925 19.63 35.9925H23.764L23.461 37.9125C23.4398 38.0469 23.4479 38.1844 23.4849 38.3153C23.5219 38.4463 23.5868 38.5677 23.6751 38.6712C23.7635 38.7747 23.8733 38.8579 23.9969 38.9149C24.1205 38.9719 24.2549 39.0014 24.391 39.0015H28.21C28.8535 39.0015 29.3995 38.5365 29.503 37.905L29.5405 37.71L30.2605 33.1455L30.3055 32.8995L30.307 32.889C30.3261 32.7645 30.3893 32.6509 30.4852 32.5692C30.581 32.4874 30.703 32.4428 30.829 32.4435H31.399C33.298 32.4435 35.0365 32.0595 36.4165 31.0785C36.9865 30.6755 37.483 30.173 37.906 29.571C38.6061 28.5966 39.0591 27.4667 39.226 26.2785C39.589 24.4095 39.421 22.7445 38.371 21.5475C38.0471 21.1866 37.6609 20.8869 37.231 20.6625L37.09 20.5695ZM25.8145 28.23C25.9633 28.1526 26.1284 28.112 26.296 28.1115H28.45C32.68 28.1115 35.9905 26.3955 36.958 21.4275L36.9625 21.4035C37.2885 21.5895 37.5625 21.8085 37.7845 22.0605C38.6035 22.995 38.803 24.363 38.4595 26.1255C38.0515 28.221 37.1605 29.586 35.965 30.4365C34.762 31.2915 33.202 31.659 31.4005 31.659H30.8305C30.5188 31.6577 30.2169 31.768 29.9795 31.9699C29.7421 32.1719 29.5847 32.4521 29.536 32.76L29.491 33.006L28.771 37.5705L28.735 37.7655L28.7335 37.7715C28.7141 37.8958 28.6508 38.0089 28.555 38.0904C28.4592 38.1719 28.3373 38.2163 28.2115 38.2155H24.3925C24.3694 38.2156 24.3466 38.2106 24.3256 38.201C24.3047 38.1914 24.286 38.1773 24.271 38.1597C24.256 38.1422 24.2451 38.1216 24.2388 38.0993C24.2326 38.0771 24.2313 38.0538 24.235 38.031L24.547 36.051L25.8145 28.23Z" fill="white"/>
</g>
<path d="M50.2883 35V17.816H55.7123C57.3923 17.816 58.7163 18.324 59.6843 19.34C60.6523 20.348 61.1363 21.636 61.1363 23.204C61.1363 24.772 60.6363 26.036 59.6363 26.996C58.6363 27.948 57.3003 28.424 55.6283 28.424H51.1403V26.936H55.6643C56.8403 26.936 57.7723 26.588 58.4603 25.892C59.1563 25.196 59.5043 24.3 59.5043 23.204C59.5043 22.1 59.1763 21.184 58.5203 20.456C57.8643 19.72 56.9363 19.352 55.7363 19.352H51.9083V35H50.2883ZM66.6458 35.372C65.3178 35.372 64.2338 34.996 63.3938 34.244C62.5618 33.492 62.1458 32.512 62.1458 31.304C62.1458 30.064 62.6138 29.08 63.5498 28.352C64.4938 27.616 65.7058 27.248 67.1858 27.248C67.9298 27.248 68.6418 27.344 69.3218 27.536C70.0098 27.72 70.5458 27.952 70.9298 28.232V27.152C70.9298 26.152 70.5938 25.356 69.9218 24.764C69.2498 24.172 68.4018 23.876 67.3778 23.876C66.7778 23.876 66.2698 23.96 65.8538 24.128C65.4458 24.296 65.1098 24.488 64.8458 24.704C64.5898 24.912 64.3578 25.132 64.1498 25.364C63.9498 25.596 63.8498 25.712 63.8498 25.712L62.6138 24.812C62.6138 24.812 62.7458 24.66 63.0098 24.356C63.2818 24.052 63.6058 23.756 63.9818 23.468C64.3658 23.18 64.8178 22.94 65.3378 22.748C65.8658 22.548 66.5498 22.448 67.3898 22.448C68.9338 22.448 70.1658 22.864 71.0858 23.696C72.0058 24.528 72.4658 25.68 72.4658 27.152V35H70.9298V31.868L71.4938 32.816H70.8698C70.5178 33.552 69.9618 34.164 69.2018 34.652C68.4418 35.132 67.5898 35.372 66.6458 35.372ZM66.7898 33.932C67.9498 33.932 68.9298 33.524 69.7298 32.708C70.5298 31.892 70.9298 30.892 70.9298 29.708V29.648C70.5298 29.304 70.0138 29.04 69.3818 28.856C68.7578 28.664 68.1058 28.568 67.4258 28.568C66.3138 28.568 65.4298 28.804 64.7738 29.276C64.1178 29.74 63.7898 30.424 63.7898 31.328C63.7898 32.112 64.0738 32.744 64.6418 33.224C65.2098 33.696 65.9258 33.932 66.7898 33.932ZM76.1785 40.16L79.0945 33.716L79.1545 34.964L73.8145 22.808H75.5545L79.3225 31.7L79.6105 32.48H79.6585L79.9585 31.688L83.5825 22.808H85.3105L77.8705 40.16H76.1785ZM87.1819 40.16V22.808H88.7179V25.664L88.3459 25.172H88.7779C89.1139 24.38 89.6899 23.728 90.5059 23.216C91.3219 22.704 92.2379 22.448 93.2539 22.448C94.9019 22.448 96.2699 23.04 97.3579 24.224C98.4459 25.408 98.9899 26.964 98.9899 28.892C98.9899 30.796 98.4459 32.352 97.3579 33.56C96.2699 34.768 94.8979 35.372 93.2419 35.372C92.2339 35.372 91.3299 35.14 90.5299 34.676C89.7299 34.212 89.1659 33.592 88.8379 32.816L88.7899 32.828V40.16H87.1819ZM93.0739 33.908C94.2899 33.908 95.3099 33.448 96.1339 32.528C96.9579 31.608 97.3699 30.396 97.3699 28.892C97.3699 27.372 96.9579 26.16 96.1339 25.256C95.3179 24.352 94.3019 23.9 93.0859 23.9C91.8459 23.9 90.8059 24.356 89.9659 25.268C89.1339 26.18 88.7179 27.4 88.7179 28.928C88.7179 30.4 89.1299 31.6 89.9539 32.528C90.7859 33.448 91.8259 33.908 93.0739 33.908ZM105.294 35.372C103.966 35.372 102.882 34.996 102.042 34.244C101.21 33.492 100.794 32.512 100.794 31.304C100.794 30.064 101.262 29.08 102.198 28.352C103.142 27.616 104.354 27.248 105.834 27.248C106.578 27.248 107.29 27.344 107.97 27.536C108.658 27.72 109.194 27.952 109.578 28.232V27.152C109.578 26.152 109.242 25.356 108.57 24.764C107.898 24.172 107.05 23.876 106.026 23.876C105.426 23.876 104.918 23.96 104.502 24.128C104.094 24.296 103.758 24.488 103.494 24.704C103.238 24.912 103.006 25.132 102.798 25.364C102.598 25.596 102.498 25.712 102.498 25.712L101.262 24.812C101.262 24.812 101.394 24.66 101.658 24.356C101.93 24.052 102.254 23.756 102.63 23.468C103.014 23.18 103.466 22.94 103.986 22.748C104.514 22.548 105.198 22.448 106.038 22.448C107.582 22.448 108.814 22.864 109.734 23.696C110.654 24.528 111.114 25.68 111.114 27.152V35H109.578V31.868L110.142 32.816H109.518C109.166 33.552 108.61 34.164 107.85 34.652C107.09 35.132 106.238 35.372 105.294 35.372ZM105.438 33.932C106.598 33.932 107.578 33.524 108.378 32.708C109.178 31.892 109.578 30.892 109.578 29.708V29.648C109.178 29.304 108.662 29.04 108.03 28.856C107.406 28.664 106.754 28.568 106.074 28.568C104.962 28.568 104.078 28.804 103.422 29.276C102.766 29.74 102.438 30.424 102.438 31.328C102.438 32.112 102.722 32.744 103.29 33.224C103.858 33.696 104.574 33.932 105.438 33.932ZM114.182 35V17.816H115.79V35H114.182ZM124.773 35V17.816H129.753C132.393 17.816 134.501 18.588 136.077 20.132C137.661 21.668 138.453 23.752 138.453 26.384C138.453 29.032 137.661 31.132 136.077 32.684C134.501 34.228 132.393 35 129.753 35H124.773ZM126.393 33.464H129.741C131.933 33.464 133.661 32.848 134.925 31.616C136.189 30.376 136.821 28.632 136.821 26.384C136.821 24.152 136.193 22.424 134.937 21.2C133.681 19.968 131.957 19.352 129.765 19.352H126.393V33.464ZM146.725 35.372C144.925 35.372 143.441 34.76 142.273 33.536C141.113 32.312 140.533 30.764 140.533 28.892C140.533 27.004 141.121 25.46 142.297 24.26C143.473 23.052 144.949 22.448 146.725 22.448C148.493 22.448 149.965 23.06 151.141 24.284C152.317 25.5 152.905 27.036 152.905 28.892C152.905 30.756 152.325 32.304 151.165 33.536C150.005 34.76 148.525 35.372 146.725 35.372ZM146.725 33.908C148.029 33.908 149.117 33.444 149.989 32.516C150.861 31.58 151.297 30.372 151.297 28.892C151.297 27.404 150.857 26.2 149.977 25.28C149.097 24.36 148.013 23.9 146.725 23.9C145.429 23.9 144.341 24.36 143.461 25.28C142.581 26.2 142.141 27.404 142.141 28.892C142.141 30.38 142.573 31.588 143.437 32.516C144.309 33.444 145.405 33.908 146.725 33.908ZM155.432 35V22.808H156.968V25.34L156.704 25.052H157.028C157.34 24.284 157.88 23.66 158.648 23.18C159.416 22.692 160.268 22.448 161.204 22.448C162.62 22.448 163.712 22.86 164.48 23.684C165.248 24.508 165.632 25.664 165.632 27.152V35H164.024V27.404C164.024 26.252 163.752 25.38 163.208 24.788C162.664 24.196 161.86 23.9 160.796 23.9C159.7 23.9 158.8 24.312 158.096 25.136C157.392 25.952 157.04 26.944 157.04 28.112V35H155.432ZM172.49 35.372C171.162 35.372 170.078 34.996 169.238 34.244C168.406 33.492 167.99 32.512 167.99 31.304C167.99 30.064 168.458 29.08 169.394 28.352C170.338 27.616 171.55 27.248 173.03 27.248C173.774 27.248 174.486 27.344 175.166 27.536C175.854 27.72 176.39 27.952 176.774 28.232V27.152C176.774 26.152 176.438 25.356 175.766 24.764C175.094 24.172 174.246 23.876 173.222 23.876C172.622 23.876 172.114 23.96 171.698 24.128C171.29 24.296 170.954 24.488 170.69 24.704C170.434 24.912 170.202 25.132 169.994 25.364C169.794 25.596 169.694 25.712 169.694 25.712L168.458 24.812C168.458 24.812 168.59 24.66 168.854 24.356C169.126 24.052 169.45 23.756 169.826 23.468C170.21 23.18 170.662 22.94 171.182 22.748C171.71 22.548 172.394 22.448 173.234 22.448C174.778 22.448 176.01 22.864 176.93 23.696C177.85 24.528 178.31 25.68 178.31 27.152V35H176.774V31.868L177.338 32.816H176.714C176.362 33.552 175.806 34.164 175.046 34.652C174.286 35.132 173.434 35.372 172.49 35.372ZM172.634 33.932C173.794 33.932 174.774 33.524 175.574 32.708C176.374 31.892 176.774 30.892 176.774 29.708V29.648C176.374 29.304 175.858 29.04 175.226 28.856C174.602 28.664 173.95 28.568 173.27 28.568C172.158 28.568 171.274 28.804 170.618 29.276C169.962 29.74 169.634 30.424 169.634 31.328C169.634 32.112 169.918 32.744 170.486 33.224C171.054 33.696 171.77 33.932 172.634 33.932ZM185.478 35.372C184.526 35.372 183.762 35.084 183.186 34.508C182.618 33.932 182.334 33.14 182.334 32.132V19.304H183.942V31.748C183.942 32.476 184.09 33.016 184.386 33.368C184.69 33.712 185.138 33.884 185.73 33.884C185.906 33.884 186.082 33.868 186.258 33.836C186.442 33.796 186.65 33.736 186.882 33.656C187.122 33.568 187.242 33.524 187.242 33.524V35.024C187.242 35.024 187.138 35.06 186.93 35.132C186.73 35.204 186.514 35.26 186.282 35.3C186.05 35.348 185.782 35.372 185.478 35.372ZM180.09 24.272V22.808H187.194V24.272H180.09ZM189.83 35V22.808H191.438V35H189.83ZM190.634 20.144C190.306 20.144 190.022 20.028 189.782 19.796C189.55 19.556 189.434 19.272 189.434 18.944C189.434 18.608 189.55 18.328 189.782 18.104C190.022 17.88 190.306 17.768 190.634 17.768C190.97 17.768 191.25 17.88 191.474 18.104C191.698 18.328 191.81 18.608 191.81 18.944C191.81 19.272 191.698 19.556 191.474 19.796C191.25 20.028 190.97 20.144 190.634 20.144ZM200.304 35.372C198.504 35.372 197.02 34.76 195.852 33.536C194.692 32.312 194.112 30.764 194.112 28.892C194.112 27.004 194.7 25.46 195.876 24.26C197.052 23.052 198.528 22.448 200.304 22.448C202.072 22.448 203.544 23.06 204.72 24.284C205.896 25.5 206.484 27.036 206.484 28.892C206.484 30.756 205.904 32.304 204.744 33.536C203.584 34.76 202.104 35.372 200.304 35.372ZM200.304 33.908C201.608 33.908 202.696 33.444 203.568 32.516C204.44 31.58 204.876 30.372 204.876 28.892C204.876 27.404 204.436 26.2 203.556 25.28C202.676 24.36 201.592 23.9 200.304 23.9C199.008 23.9 197.92 24.36 197.04 25.28C196.16 26.2 195.72 27.404 195.72 28.892C195.72 30.38 196.152 31.588 197.016 32.516C197.888 33.444 198.984 33.908 200.304 33.908ZM209.01 35V22.808H210.546V25.34L210.282 25.052H210.606C210.918 24.284 211.458 23.66 212.226 23.18C212.994 22.692 213.846 22.448 214.782 22.448C216.198 22.448 217.29 22.86 218.058 23.684C218.826 24.508 219.21 25.664 219.21 27.152V35H217.602V27.404C217.602 26.252 217.33 25.38 216.786 24.788C216.242 24.196 215.438 23.9 214.374 23.9C213.278 23.9 212.378 24.312 211.674 25.136C210.97 25.952 210.618 26.944 210.618 28.112V35H209.01Z" fill="white"/>
<defs>
<clipPath id="clip0_2002_54">
<rect width="24" height="24" fill="white" transform="translate(16 15)"/>
</clipPath>
</defs>
</svg>
