<svg width="244" height="54" viewBox="0 0 244 54" fill="none" xmlns="http://www.w3.org/2000/svg">
<rect width="244" height="54" fill="#003087"/>
<g clip-path="url(#clip0_2002_46)">
<path d="M37.09 20.5695C37.27 18.963 36.9505 17.8215 36.037 16.7805C34.942 15.534 32.968 15 30.439 15H23.101C22.8512 15.0001 22.6096 15.0893 22.4197 15.2515C22.2297 15.4137 22.1038 15.6383 22.0645 15.885L19.0075 35.2635C18.9932 35.3535 18.9986 35.4455 19.0233 35.5333C19.048 35.621 19.0914 35.7023 19.1506 35.7716C19.2098 35.8409 19.2833 35.8965 19.3661 35.9347C19.4488 35.9728 19.5389 35.9925 19.63 35.9925H23.764L23.461 37.9125C23.4398 38.0469 23.4479 38.1844 23.4849 38.3153C23.5219 38.4463 23.5868 38.5677 23.6751 38.6712C23.7635 38.7747 23.8733 38.8579 23.9969 38.9149C24.1205 38.9719 24.2549 39.0014 24.391 39.0015H28.21C28.8535 39.0015 29.3995 38.5365 29.503 37.905L29.5405 37.71L30.2605 33.1455L30.3055 32.8995L30.307 32.889C30.3261 32.7645 30.3893 32.6509 30.4852 32.5692C30.581 32.4874 30.703 32.4428 30.829 32.4435H31.399C33.298 32.4435 35.0365 32.0595 36.4165 31.0785C36.9865 30.6755 37.483 30.173 37.906 29.571C38.6061 28.5966 39.0591 27.4667 39.226 26.2785C39.589 24.4095 39.421 22.7445 38.371 21.5475C38.0471 21.1866 37.6609 20.8869 37.231 20.6625L37.09 20.5695ZM25.8145 28.23C25.9633 28.1526 26.1284 28.112 26.296 28.1115H28.45C32.68 28.1115 35.9905 26.3955 36.958 21.4275L36.9625 21.4035C37.2885 21.5895 37.5625 21.8085 37.7845 22.0605C38.6035 22.995 38.803 24.363 38.4595 26.1255C38.0515 28.221 37.1605 29.586 35.965 30.4365C34.762 31.2915 33.202 31.659 31.4005 31.659H30.8305C30.5188 31.6577 30.2169 31.768 29.9795 31.9699C29.7421 32.1719 29.5847 32.4521 29.536 32.76L29.491 33.006L28.771 37.5705L28.735 37.7655L28.7335 37.7715C28.7141 37.8958 28.6508 38.0089 28.555 38.0904C28.4592 38.1719 28.3373 38.2163 28.2115 38.2155H24.3925C24.3694 38.2156 24.3466 38.2106 24.3256 38.201C24.3047 38.1914 24.286 38.1773 24.271 38.1597C24.256 38.1422 24.2451 38.1216 24.2388 38.0993C24.2326 38.0771 24.2313 38.0538 24.235 38.031L24.547 36.051L25.8145 28.23Z" fill="white"/>
</g>
<path d="M49.9538 35V17.816H55.9898C57.6938 17.816 59.0698 18.336 60.1178 19.376C61.1658 20.408 61.6898 21.776 61.6898 23.48C61.6898 25.168 61.1458 26.504 60.0578 27.488C58.9778 28.472 57.5898 28.964 55.8938 28.964H51.3698V26.648H55.8218C56.7898 26.648 57.5698 26.36 58.1618 25.784C58.7538 25.208 59.0498 24.448 59.0498 23.504C59.0498 22.536 58.7618 21.748 58.1858 21.14C57.6098 20.532 56.8538 20.228 55.9178 20.228H52.5698V35H49.9538ZM67.191 35.384C65.831 35.384 64.731 35.008 63.891 34.256C63.051 33.496 62.631 32.512 62.631 31.304C62.631 30.064 63.111 29.072 64.071 28.328C65.039 27.584 66.291 27.212 67.827 27.212C68.483 27.212 69.119 27.284 69.735 27.428C70.351 27.564 70.851 27.74 71.235 27.956V27.224C71.235 26.384 70.943 25.712 70.359 25.208C69.775 24.696 69.015 24.44 68.079 24.44C67.559 24.44 67.119 24.5 66.759 24.62C66.407 24.74 66.091 24.892 65.811 25.076C65.539 25.252 65.283 25.46 65.043 25.7C64.811 25.94 64.695 26.06 64.695 26.06L63.051 24.632C63.051 24.632 63.227 24.464 63.579 24.128C63.931 23.784 64.323 23.48 64.755 23.216C65.187 22.944 65.675 22.728 66.219 22.568C66.771 22.408 67.439 22.328 68.223 22.328C69.943 22.328 71.291 22.764 72.267 23.636C73.243 24.5 73.731 25.7 73.731 27.236V35H71.247V32.168L71.991 33.308H71.175C70.799 33.924 70.251 34.424 69.531 34.808C68.819 35.192 68.039 35.384 67.191 35.384ZM67.695 33.368C68.687 33.368 69.523 33.016 70.203 32.312C70.891 31.608 71.235 30.736 71.235 29.696V29.684C70.867 29.444 70.423 29.256 69.903 29.12C69.391 28.984 68.851 28.916 68.283 28.916C67.331 28.916 66.571 29.108 66.003 29.492C65.443 29.876 65.163 30.456 65.163 31.232C65.163 31.88 65.399 32.4 65.871 32.792C66.343 33.176 66.951 33.368 67.695 33.368ZM77.0016 40.172C77.0016 40.172 76.9976 40.172 76.9896 40.172C76.9896 40.172 76.9936 40.172 77.0016 40.172L80.0736 33.464L80.1336 35.012L74.6856 22.712H77.4336L80.6976 30.464L81.0096 31.412H81.0816L81.4296 30.44L84.5136 22.712C84.5056 22.712 84.5016 22.712 84.5016 22.712C84.5096 22.712 84.5136 22.712 84.5136 22.712H87.2136L79.7136 40.172H77.0016ZM88.7927 40.16V22.712H91.2767V25.112L90.6887 24.428H91.3487C91.7247 23.812 92.2887 23.308 93.0407 22.916C93.7927 22.524 94.6167 22.328 95.5127 22.328C97.1767 22.328 98.5647 22.928 99.6767 24.128C100.789 25.328 101.345 26.896 101.345 28.832C101.345 30.736 100.789 32.304 99.6767 33.536C98.5727 34.768 97.1767 35.384 95.4887 35.384C94.6167 35.384 93.8127 35.208 93.0767 34.856C92.3407 34.504 91.8007 34.024 91.4567 33.416L91.3967 33.428V40.16H88.7927ZM95.0447 33.116C96.1007 33.116 96.9847 32.716 97.6967 31.916C98.4167 31.108 98.7767 30.084 98.7767 28.844C98.7767 27.58 98.4127 26.556 97.6847 25.772C96.9647 24.988 96.0847 24.596 95.0447 24.596C93.9967 24.596 93.1087 24.988 92.3807 25.772C91.6607 26.556 91.3007 27.58 91.3007 28.844C91.3007 30.084 91.6607 31.108 92.3807 31.916C93.1007 32.716 93.9887 33.116 95.0447 33.116ZM107.457 35.384C106.097 35.384 104.997 35.008 104.157 34.256C103.317 33.496 102.897 32.512 102.897 31.304C102.897 30.064 103.377 29.072 104.337 28.328C105.305 27.584 106.557 27.212 108.093 27.212C108.749 27.212 109.385 27.284 110.001 27.428C110.617 27.564 111.117 27.74 111.501 27.956V27.224C111.501 26.384 111.209 25.712 110.625 25.208C110.041 24.696 109.281 24.44 108.345 24.44C107.825 24.44 107.385 24.5 107.025 24.62C106.673 24.74 106.357 24.892 106.077 25.076C105.805 25.252 105.549 25.46 105.309 25.7C105.077 25.94 104.961 26.06 104.961 26.06L103.317 24.632C103.317 24.632 103.493 24.464 103.845 24.128C104.197 23.784 104.589 23.48 105.021 23.216C105.453 22.944 105.941 22.728 106.485 22.568C107.037 22.408 107.705 22.328 108.489 22.328C110.209 22.328 111.557 22.764 112.533 23.636C113.509 24.5 113.997 25.7 113.997 27.236V35H111.513V32.168L112.257 33.308H111.441C111.065 33.924 110.517 34.424 109.797 34.808C109.085 35.192 108.305 35.384 107.457 35.384ZM107.961 33.368C108.953 33.368 109.789 33.016 110.469 32.312C111.157 31.608 111.501 30.736 111.501 29.696V29.684C111.133 29.444 110.689 29.256 110.169 29.12C109.657 28.984 109.117 28.916 108.549 28.916C107.597 28.916 106.837 29.108 106.269 29.492C105.709 29.876 105.429 30.456 105.429 31.232C105.429 31.88 105.665 32.4 106.137 32.792C106.609 33.176 107.217 33.368 107.961 33.368ZM116.847 35V17.816H119.451V35H116.847ZM128.165 35V17.816H133.649C136.265 17.816 138.369 18.6 139.961 20.168C141.561 21.736 142.361 23.808 142.361 26.384C142.361 28.976 141.565 31.06 139.973 32.636C138.381 34.212 136.273 35 133.649 35H128.165ZM130.781 32.576H133.577C135.481 32.584 136.977 32.044 138.065 30.956C139.161 29.86 139.709 28.34 139.709 26.396C139.709 24.468 139.161 22.968 138.065 21.896C136.969 20.816 135.473 20.276 133.577 20.276H130.781V32.576ZM150.592 35.384C148.728 35.384 147.184 34.764 145.96 33.524C144.744 32.284 144.136 30.724 144.136 28.844C144.136 26.948 144.748 25.388 145.972 24.164C147.196 22.94 148.736 22.328 150.592 22.328C152.44 22.328 153.976 22.944 155.2 24.176C156.432 25.408 157.048 26.964 157.048 28.844C157.048 30.724 156.44 32.284 155.224 33.524C154.008 34.764 152.464 35.384 150.592 35.384ZM150.592 33.104C151.688 33.104 152.608 32.708 153.352 31.916C154.104 31.116 154.48 30.092 154.48 28.844C154.48 27.58 154.104 26.56 153.352 25.784C152.6 25 151.68 24.608 150.592 24.608C149.488 24.608 148.56 25 147.808 25.784C147.064 26.568 146.692 27.588 146.692 28.844C146.692 30.092 147.064 31.116 147.808 31.916C148.552 32.708 149.48 33.104 150.592 33.104ZM159.316 35V22.712H161.8V24.908L161.464 24.512H161.872C162.24 23.872 162.796 23.348 163.54 22.94C164.292 22.532 165.072 22.328 165.88 22.328C167.296 22.328 168.4 22.748 169.192 23.588C169.992 24.42 170.392 25.572 170.392 27.044V35H167.788V27.548C167.788 26.572 167.552 25.832 167.08 25.328C166.616 24.824 165.924 24.572 165.004 24.572C164.132 24.572 163.4 24.916 162.808 25.604C162.216 26.292 161.92 27.12 161.92 28.088V35H159.316ZM177.066 35.384C175.706 35.384 174.606 35.008 173.766 34.256C172.926 33.496 172.506 32.512 172.506 31.304C172.506 30.064 172.986 29.072 173.946 28.328C174.914 27.584 176.166 27.212 177.702 27.212C178.358 27.212 178.994 27.284 179.61 27.428C180.226 27.564 180.726 27.74 181.11 27.956V27.224C181.11 26.384 180.818 25.712 180.234 25.208C179.65 24.696 178.89 24.44 177.954 24.44C177.434 24.44 176.994 24.5 176.634 24.62C176.282 24.74 175.966 24.892 175.686 25.076C175.414 25.252 175.158 25.46 174.918 25.7C174.686 25.94 174.57 26.06 174.57 26.06L172.926 24.632C172.926 24.632 173.102 24.464 173.454 24.128C173.806 23.784 174.198 23.48 174.63 23.216C175.062 22.944 175.55 22.728 176.094 22.568C176.646 22.408 177.314 22.328 178.098 22.328C179.818 22.328 181.166 22.764 182.142 23.636C183.118 24.5 183.606 25.7 183.606 27.236V35H181.122V32.168L181.866 33.308H181.05C180.674 33.924 180.126 34.424 179.406 34.808C178.694 35.192 177.914 35.384 177.066 35.384ZM177.57 33.368C178.562 33.368 179.398 33.016 180.078 32.312C180.766 31.608 181.11 30.736 181.11 29.696V29.684C180.742 29.444 180.298 29.256 179.778 29.12C179.266 28.984 178.726 28.916 178.158 28.916C177.206 28.916 176.446 29.108 175.878 29.492C175.318 29.876 175.038 30.456 175.038 31.232C175.038 31.88 175.274 32.4 175.746 32.792C176.218 33.176 176.826 33.368 177.57 33.368ZM190.751 35.384C189.655 35.384 188.779 35.068 188.123 34.436C187.467 33.796 187.139 32.892 187.139 31.724V19.304H189.731V31.232C189.731 31.888 189.863 32.372 190.127 32.684C190.391 32.996 190.783 33.152 191.303 33.152C191.439 33.152 191.587 33.14 191.747 33.116C191.915 33.084 192.123 33.028 192.371 32.948C192.619 32.868 192.743 32.828 192.743 32.828V35.036C192.743 35.036 192.615 35.072 192.359 35.144C192.111 35.224 191.863 35.284 191.615 35.324C191.367 35.364 191.079 35.384 190.751 35.384ZM185.099 24.884V22.712H192.719V24.884H185.099ZM195.261 35V22.712H197.865V35H195.261ZM196.569 20.42C196.121 20.42 195.737 20.264 195.417 19.952C195.105 19.632 194.949 19.248 194.949 18.8C194.949 18.344 195.105 17.964 195.417 17.66C195.737 17.356 196.121 17.204 196.569 17.204C197.033 17.204 197.413 17.356 197.709 17.66C198.013 17.964 198.165 18.344 198.165 18.8C198.165 19.248 198.013 19.632 197.709 19.952C197.413 20.264 197.033 20.42 196.569 20.42ZM206.748 35.384C204.884 35.384 203.34 34.764 202.116 33.524C200.9 32.284 200.292 30.724 200.292 28.844C200.292 26.948 200.904 25.388 202.128 24.164C203.352 22.94 204.892 22.328 206.748 22.328C208.596 22.328 210.132 22.944 211.356 24.176C212.588 25.408 213.204 26.964 213.204 28.844C213.204 30.724 212.596 32.284 211.38 33.524C210.164 34.764 208.62 35.384 206.748 35.384ZM206.748 33.104C207.844 33.104 208.764 32.708 209.508 31.916C210.26 31.116 210.636 30.092 210.636 28.844C210.636 27.58 210.26 26.56 209.508 25.784C208.756 25 207.836 24.608 206.748 24.608C205.644 24.608 204.716 25 203.964 25.784C203.22 26.568 202.848 27.588 202.848 28.844C202.848 30.092 203.22 31.116 203.964 31.916C204.708 32.708 205.636 33.104 206.748 33.104ZM215.472 35V22.712H217.956V24.908L217.62 24.512H218.028C218.396 23.872 218.952 23.348 219.696 22.94C220.448 22.532 221.228 22.328 222.036 22.328C223.452 22.328 224.556 22.748 225.348 23.588C226.148 24.42 226.548 25.572 226.548 27.044V35H223.944V27.548C223.944 26.572 223.708 25.832 223.236 25.328C222.772 24.824 222.08 24.572 221.16 24.572C220.288 24.572 219.556 24.916 218.964 25.604C218.372 26.292 218.076 27.12 218.076 28.088V35H215.472Z" fill="white"/>
<defs>
<clipPath id="clip0_2002_46">
<rect width="24" height="24" fill="white" transform="translate(16 15)"/>
</clipPath>
</defs>
</svg>
